<svg width="3605" height="960" viewBox="0 0 3605 960" fill="none" xmlns="http://www.w3.org/2000/svg">
<path d="M810 480C810 297.746 662.254 150 480 150C297.746 150 150 297.746 150 480V940H0V20H150V167.664C221.696 65.0261 334.177 0 480 0C745.097 0 960 214.903 960 480V940H810V480Z" fill="black"/>
<path d="M1165 20H1315V940H1165V20Z" fill="black"/>
<path d="M2340 480C2340 297.746 2192.25 150 2010 150C1827.75 150 1680 297.746 1680 480V940H1530V20H1680V167.664C1751.7 65.0261 1864.18 0 2010 0C2275.1 0 2490 214.903 2490 480V940H2340V480Z" fill="black"/>
<path fill-rule="evenodd" clip-rule="evenodd" d="M3125 0C2859.9 0 2645 214.903 2645 480C2645 745.097 2859.9 960 3125 960C3270.82 960 3383.3 894.974 3455 792.336V940H3605V20H3455V167.664C3383.3 65.0261 3270.82 0 3125 0ZM3455 480C3455 297.746 3307.25 150 3125 150C2942.75 150 2795 297.746 2795 480C2795 662.254 2942.75 810 3125 810C3307.25 810 3455 662.254 3455 480Z" fill="black"/>
</svg>
