<?xml version="1.0" encoding="utf-8"?>
<!-- Generator: Adobe Illustrator 25.4.1, SVG Export Plug-In . SVG Version: 6.00 Build 0)  -->
<svg version="1.1" id="Layer_1" xmlns="http://www.w3.org/2000/svg" xmlns:xlink="http://www.w3.org/1999/xlink" x="0px" y="0px"
	 viewBox="0 0 422 422" style="enable-background:new 0 0 422 422;" xml:space="preserve">
<style type="text/css">
	.st0{opacity:0.8;}
</style>
<g class="st0">
	<image style="overflow:visible;opacity:0.75;" width="422" height="422" xlink:href="840D4741A8C93E49.png" >
	</image>
	<g>
		<path d="M204,8C95.8,8,8,95.8,8,204s87.8,196,196,196s196-87.8,196-196S312.2,8,204,8z M176,282.4c0,3.1-2.5,5.6-5.6,5.6h-30.8
			c-3.1,0-5.6-2.5-5.6-5.6l0-156.8c0-3.1,2.5-5.6,5.6-5.6h30.8c3.1,0,5.6,2.5,5.6,5.6L176,282.4z M274,282.4c0,3.1-2.5,5.6-5.6,5.6
			h-30.8c-3.1,0-5.6-2.5-5.6-5.6V125.6c0-3.1,2.5-5.6,5.6-5.6h30.8c3.1,0,5.6,2.5,5.6,5.6L274,282.4z"/>
	</g>
</g>
</svg>
