<?xml version="1.0" encoding="utf-8"?>
<!-- Generator: Adobe Illustrator 25.4.1, SVG Export Plug-In . SVG Version: 6.00 Build 0)  -->
<svg version="1.1" id="Layer_1" xmlns="http://www.w3.org/2000/svg" xmlns:xlink="http://www.w3.org/1999/xlink" x="0px" y="0px"
	 viewBox="0 0 537.5 537.5" style="enable-background:new 0 0 537.5 537.5;" xml:space="preserve">
<style type="text/css">
	.st0{fill-rule:evenodd;clip-rule:evenodd;fill:#FFFFFF;}
</style>
<g>
	<path class="st0" d="M371,407.4V129.8h-80.7v277.6H371z"/>
	<path class="st0" d="M247.2,407.4V129.8h-80.7v277.6H247.2z"/>
	<path class="st0" d="M537.5,268.4c0,148.8-120.3,269.1-269.1,269.1C120.3,537.5,0,417.2,0,268.4C0,120.3,120.3,0,268.4,0
		C417.2,0,537.5,120.3,537.5,268.4z M504.5,268.4c0,130.9-105.1,236-236,236c-130.2,0-236-105.1-236-236c0-130.2,105.8-236,236-236
		C399.3,32.4,504.5,138.2,504.5,268.4z"/>
</g>
<g>
	<defs>
		<polyline id="SVGID_1_" points="698.9,558.7 698.9,1258.7 -1.1,1258.7 		"/>
	</defs>
	<clipPath id="SVGID_00000135671517893986312240000009217829623357175970_">
		<use xlink:href="#SVGID_1_"  style="overflow:visible;"/>
	</clipPath>
</g>
<g>
	<defs>
		<polyline id="SVGID_00000095304937384225848730000017844236557095896763_" points="710.3,558.7 710.3,1258.7 10.3,1258.7 		"/>
	</defs>
	<clipPath id="SVGID_00000071540010639182323680000014341745454489285514_">
		<use xlink:href="#SVGID_00000095304937384225848730000017844236557095896763_"  style="overflow:visible;"/>
	</clipPath>
</g>
<g>
	<defs>
		<polyline id="SVGID_00000081615521487251207000000004183174078339693223_" points="716,558.7 716,1258.7 16,1258.7 		"/>
	</defs>
	<clipPath id="SVGID_00000027569813057469696240000002562414159192403360_">
		<use xlink:href="#SVGID_00000081615521487251207000000004183174078339693223_"  style="overflow:visible;"/>
	</clipPath>
</g>
<g>
	<defs>
		<polyline id="SVGID_00000183933707664618271200000009763914889288973500_" points="720.6,558.7 720.6,1258.7 20.6,1258.7 		"/>
	</defs>
	<clipPath id="SVGID_00000023993863894483992890000017484399698404991416_">
		<use xlink:href="#SVGID_00000183933707664618271200000009763914889288973500_"  style="overflow:visible;"/>
	</clipPath>
</g>
<g>
	<defs>
		<polyline id="SVGID_00000160890397494226375510000012944076800053320126_" points="722.1,558.7 722.1,1258.7 22.1,1258.7 		"/>
	</defs>
	<clipPath id="SVGID_00000029730023966841468480000010254858972505631628_">
		<use xlink:href="#SVGID_00000160890397494226375510000012944076800053320126_"  style="overflow:visible;"/>
	</clipPath>
</g>
<g>
	<defs>
		<polyline id="SVGID_00000110440148454073595420000012818114470911124403_" points="726.6,558.7 726.6,1258.7 26.6,1258.7 		"/>
	</defs>
	<clipPath id="SVGID_00000018235125938285709700000011094475305261435787_">
		<use xlink:href="#SVGID_00000110440148454073595420000012818114470911124403_"  style="overflow:visible;"/>
	</clipPath>
</g>
<g>
	<defs>
		<polyline id="SVGID_00000057118098183043173500000004871315500209272968_" points="690.2,562 690.2,1262 -9.8,1262 		"/>
	</defs>
	<clipPath id="SVGID_00000083068676628845740270000011824961469567270304_">
		<use xlink:href="#SVGID_00000057118098183043173500000004871315500209272968_"  style="overflow:visible;"/>
	</clipPath>
</g>
<g>
	<defs>
		<polyline id="SVGID_00000042701824489076448220000016071777440917858492_" points="694.1,562 694.1,1262 -5.9,1262 		"/>
	</defs>
	<clipPath id="SVGID_00000091710419498373355940000017930769411501447577_">
		<use xlink:href="#SVGID_00000042701824489076448220000016071777440917858492_"  style="overflow:visible;"/>
	</clipPath>
</g>
<g>
	<defs>
		<polyline id="SVGID_00000093176176373656988550000005093943084804211617_" points="698.7,562 698.7,1262 -1.3,1262 		"/>
	</defs>
	<clipPath id="SVGID_00000078036726736754180300000015297086560995996084_">
		<use xlink:href="#SVGID_00000093176176373656988550000005093943084804211617_"  style="overflow:visible;"/>
	</clipPath>
</g>
<g>
	<defs>
		<polyline id="SVGID_00000081637346832144534390000012517794212277415600_" points="702.6,562 702.6,1262 2.6,1262 		"/>
	</defs>
	<clipPath id="SVGID_00000018202773451179362460000004027059511458990216_">
		<use xlink:href="#SVGID_00000081637346832144534390000012517794212277415600_"  style="overflow:visible;"/>
	</clipPath>
</g>
<g>
	<defs>
		<polyline id="SVGID_00000098209234665007391430000017235213165240842427_" points="708.8,562 708.8,1262 8.8,1262 		"/>
	</defs>
	<clipPath id="SVGID_00000044145404575460398080000007609960724441916349_">
		<use xlink:href="#SVGID_00000098209234665007391430000017235213165240842427_"  style="overflow:visible;"/>
	</clipPath>
</g>
<g>
	<defs>
		<polyline id="SVGID_00000180332696763543640120000001684422691674811065_" points="713.4,562 713.4,1262 13.4,1262 		"/>
	</defs>
	<clipPath id="SVGID_00000042720619972050618050000013153357559429148320_">
		<use xlink:href="#SVGID_00000180332696763543640120000001684422691674811065_"  style="overflow:visible;"/>
	</clipPath>
</g>
<g>
	<defs>
		<polyline id="SVGID_00000179641429398703589410000009552756360927532455_" points="719.3,562 719.3,1262 19.3,1262 		"/>
	</defs>
	<clipPath id="SVGID_00000052794022139792352440000018339326818835530670_">
		<use xlink:href="#SVGID_00000179641429398703589410000009552756360927532455_"  style="overflow:visible;"/>
	</clipPath>
</g>
<g>
	<defs>
		<polyline id="SVGID_00000155825645323936237530000005621490747962430359_" points="721,562 721,1262 21,1262 		"/>
	</defs>
	<clipPath id="SVGID_00000140713463793997874080000000005784227967585180_">
		<use xlink:href="#SVGID_00000155825645323936237530000005621490747962430359_"  style="overflow:visible;"/>
	</clipPath>
</g>
<g>
	<defs>
		<polyline id="SVGID_00000041980469074647759030000002072327086863527081_" points="724.4,562 724.4,1262 24.4,1262 		"/>
	</defs>
	<clipPath id="SVGID_00000173846149477020106160000005254631419540151451_">
		<use xlink:href="#SVGID_00000041980469074647759030000002072327086863527081_"  style="overflow:visible;"/>
	</clipPath>
</g>
<g>
	<defs>
		<polyline id="SVGID_00000042719034273677527930000009362198665911237556_" points="728.6,562 728.6,1262 28.6,1262 		"/>
	</defs>
	<clipPath id="SVGID_00000133526568134930642750000012206413996045535925_">
		<use xlink:href="#SVGID_00000042719034273677527930000009362198665911237556_"  style="overflow:visible;"/>
	</clipPath>
</g>
</svg>
