<?xml version="1.0" encoding="utf-8"?>
<!-- Generator: Adobe Illustrator 25.4.1, SVG Export Plug-In . SVG Version: 6.00 Build 0)  -->
<svg version="1.1" id="Layer_1" xmlns="http://www.w3.org/2000/svg" xmlns:xlink="http://www.w3.org/1999/xlink" x="0px" y="0px"
	 viewBox="0 0 442 442" style="enable-background:new 0 0 442 442;" xml:space="preserve">
<style type="text/css">
	.st0{opacity:0.9;}
	.st1{fill:#FFFFFF;}
	.st2{fill:none;stroke:#000000;stroke-width:20;stroke-miterlimit:10;}
</style>
<g class="st0">
	<image style="overflow:visible;opacity:0.75;" width="442" height="442" xlink:href="840D4741A8C93E42.png" >
	</image>
	<g>
		<path class="st1" d="M214,18C105.8,18,18,105.8,18,214s87.8,196,196,196s196-87.8,196-196S322.2,18,214,18z M186,292.4
			c0,3.1-2.5,5.6-5.6,5.6h-30.8c-3.1,0-5.6-2.5-5.6-5.6l0-156.8c0-3.1,2.5-5.6,5.6-5.6h30.8c3.1,0,5.6,2.5,5.6,5.6L186,292.4z
			 M284,292.4c0,3.1-2.5,5.6-5.6,5.6h-30.8c-3.1,0-5.6-2.5-5.6-5.6V135.6c0-3.1,2.5-5.6,5.6-5.6h30.8c3.1,0,5.6,2.5,5.6,5.6
			L284,292.4z"/>
		<path class="st2" d="M214,18C105.8,18,18,105.8,18,214s87.8,196,196,196s196-87.8,196-196S322.2,18,214,18z M186,292.4
			c0,3.1-2.5,5.6-5.6,5.6h-30.8c-3.1,0-5.6-2.5-5.6-5.6l0-156.8c0-3.1,2.5-5.6,5.6-5.6h30.8c3.1,0,5.6,2.5,5.6,5.6L186,292.4z
			 M284,292.4c0,3.1-2.5,5.6-5.6,5.6h-30.8c-3.1,0-5.6-2.5-5.6-5.6V135.6c0-3.1,2.5-5.6,5.6-5.6h30.8c3.1,0,5.6,2.5,5.6,5.6
			L284,292.4z"/>
	</g>
</g>
</svg>
