<?xml version="1.0" encoding="utf-8"?>
<!-- Generator: Adobe Illustrator 25.4.1, SVG Export Plug-In . SVG Version: 6.00 Build 0)  -->
<svg version="1.1" id="Layer_1" xmlns="http://www.w3.org/2000/svg" xmlns:xlink="http://www.w3.org/1999/xlink" x="0px" y="0px"
	 viewBox="0 0 442 442" style="enable-background:new 0 0 442 442;" xml:space="preserve">
<style type="text/css">
	.st0{opacity:0.9;}
	.st1{fill:#FAFCFF;}
	.st2{fill:none;stroke:#000000;stroke-width:20;stroke-miterlimit:10;}
</style>
<g class="st0">
	<image style="overflow:visible;opacity:0.75;" width="442" height="442" xlink:href="14D3AF714DF4D15.png" >
	</image>
	<g>
		<path class="st1" d="M214,18C105.8,18,18,105.8,18,214s87.8,196,196,196s196-87.8,196-196S322.2,18,214,18z M295.6,218.8
			l-129.1,78.6c-3.8,2.3-8.5-0.4-8.5-4.8V135.4c0-4.4,4.8-7.1,8.5-4.8l129.1,78.6C299.2,211.4,299.2,216.6,295.6,218.8L295.6,218.8z
			"/>
		<path class="st2" d="M214,18C105.8,18,18,105.8,18,214s87.8,196,196,196s196-87.8,196-196S322.2,18,214,18z M295.6,218.8
			l-129.1,78.6c-3.8,2.3-8.5-0.4-8.5-4.8V135.4c0-4.4,4.8-7.1,8.5-4.8l129.1,78.6C299.2,211.4,299.2,216.6,295.6,218.8L295.6,218.8z
			"/>
	</g>
</g>
</svg>
